<svg xmlns="http://www.w3.org/2000/svg" viewBox="0 0 411.745 110.575">
  <defs>
    <style>
      .cls-1 {
        fill: none;
      }

      .cls-2 {
        fill: #2b2929;
      }
    </style>
  </defs>
  <g id="Layer_2" transform="translate(-831.762 -608.977)">
    <g id="Group_1" data-name="Group 1">
      <path id="Path_1" data-name="Path 1" class="cls-1" d="M1155.73,709.51a3.559,3.559,0,0,0-.8-.088,1.965,1.965,0,0,0-1.359.357,2.073,2.073,0,0,0-.43,1.354h3.273v-1.4a1.452,1.452,0,0,0-.18-.088A3.847,3.847,0,0,0,1155.73,709.51Z"/>
      <path id="Path_2" data-name="Path 2" class="cls-1" d="M1180.41,709.734a1.452,1.452,0,0,0-.18-.088,3.713,3.713,0,0,0-.5-.137,3.559,3.559,0,0,0-.8-.088,1.965,1.965,0,0,0-1.359.357,2.073,2.073,0,0,0-.43,1.354h3.273v-1.4Z"/>
      <path id="Path_3" data-name="Path 3" class="cls-1" d="M1196.49,713.653l.039.213a1.562,1.562,0,0,0,.18.11,2.744,2.744,0,0,0,.523.171,3.372,3.372,0,0,0,.857.107,2.939,2.939,0,0,0,1.229-.2,1.2,1.2,0,0,0,.609-.715,4.681,4.681,0,0,0,.186-1.5c0-.391-.012-.754-.037-1.092s-.051-.577-.076-.719l-.039-.214a1.9,1.9,0,0,0-.178-.11,2.922,2.922,0,0,0-.525-.171,3.369,3.369,0,0,0-.857-.106,2.939,2.939,0,0,0-1.229.2,1.2,1.2,0,0,0-.609.711,4.639,4.639,0,0,0-.186,1.5c0,.392.012.757.039,1.1A6.41,6.41,0,0,0,1196.49,713.653Z"/>
      <path id="Path_4" data-name="Path 4" class="cls-1" d="M1212.7,710.023l-.039-.214a1.9,1.9,0,0,0-.178-.11,2.922,2.922,0,0,0-.525-.171,3.369,3.369,0,0,0-.857-.106,4.557,4.557,0,0,0-1.041.114,2.757,2.757,0,0,0-.7.236l-.2.113v3.82a2.065,2.065,0,0,0,.225.152,3.328,3.328,0,0,0,.617.244,3.043,3.043,0,0,0,.955.152,2.466,2.466,0,0,0,1.117-.2,1.223,1.223,0,0,0,.572-.719,4.767,4.767,0,0,0,.182-1.5c0-.391-.014-.754-.041-1.092S1212.72,710.165,1212.7,710.023Z"/>
      <path id="Path_5" data-name="Path 5" class="cls-1" d="M900.594,675.5a18.916,18.916,0,0,0-2.092,2.186l.443-.278a53.144,53.144,0,0,0,4.547-4.021c-.133.086-.274.18-.424.279Z"/>
      <path id="Path_6" data-name="Path 6" class="cls-1" d="M1049.5,713.653l.038.213a1.653,1.653,0,0,0,.18.11,2.765,2.765,0,0,0,.524.171,3.369,3.369,0,0,0,.856.107,2.936,2.936,0,0,0,1.229-.2,1.2,1.2,0,0,0,.608-.715,4.649,4.649,0,0,0,.187-1.5c0-.391-.013-.754-.038-1.092s-.051-.577-.076-.719l-.038-.214a1.935,1.935,0,0,0-.179-.11,2.894,2.894,0,0,0-.525-.171,3.366,3.366,0,0,0-.856-.106,2.939,2.939,0,0,0-1.229.2,1.2,1.2,0,0,0-.609.711,4.611,4.611,0,0,0-.186,1.5c0,.392.012.757.038,1.1A4.836,4.836,0,0,0,1049.5,713.653Z"/>
      <path id="Path_7" data-name="Path 7" class="cls-1" d="M1142.42,713.79a1.9,1.9,0,0,0,.943-.574,2.337,2.337,0,0,0,.518-1.115,9.5,9.5,0,0,0,.141-1.826q0-.973-.038-1.751c-.025-.517-.051-.872-.075-1.065l-.038-.3c-.026-.016-.063-.036-.114-.062a3.5,3.5,0,0,0-.347-.129c-.18-.062-.374-.115-.582-.164a7.845,7.845,0,0,0-.833-.133,9.271,9.271,0,0,0-1.085-.062h-2.185v7.329h2.185A6,6,0,0,0,1142.42,713.79Z"/>
      <path id="Path_8" data-name="Path 8" class="cls-1" d="M1121.67,709.97a2.548,2.548,0,0,0-.225-.152,3.385,3.385,0,0,0-.612-.243,3.049,3.049,0,0,0-.951-.152,2.524,2.524,0,0,0-1.119.2,1.2,1.2,0,0,0-.57.715,4.731,4.731,0,0,0-.183,1.5c0,.392.012.757.038,1.1s.05.581.075.723l.038.213a1.653,1.653,0,0,0,.18.11,2.765,2.765,0,0,0,.524.171,3.369,3.369,0,0,0,.856.107,4.46,4.46,0,0,0,1.043-.118,2.751,2.751,0,0,0,.692-.24l.213-.114V709.97Z"/>
      <path id="Path_9" data-name="Path 9" class="cls-1" d="M993.316,691.833a11.418,11.418,0,0,0-3.309,3.793c2.729.563,6.262.14,10.547-1.276a65.192,65.192,0,0,0,12.494-5.4l-17.565,1.307C994.645,690.83,993.92,691.355,993.316,691.833Z"/>
      <path id="Path_10" data-name="Path 10" class="cls-1" d="M1089.93,683.308c16.752.95,33.09,1.771,49.373,2.829a15.521,15.521,0,0,1,1.656-2.616c.476-.6,1-1.192,1.559-1.77-14.715.2-29.432.55-44.148.928C1095.7,682.747,1093.03,683.07,1089.93,683.308Z"/>
      <path id="Path_11" data-name="Path 11" class="cls-1" d="M1087.21,674.924a12.52,12.52,0,0,0,2.135-.965,6.38,6.38,0,0,0,1.332-1.206q-2,.966-1.867.885A3.165,3.165,0,0,0,1087.21,674.924Z"/>
      <path id="Path_12" data-name="Path 12" class="cls-1" d="M1144.16,676.449a10.525,10.525,0,0,1-4.535-.883,10.979,10.979,0,0,1-1.011-.452,19.97,19.97,0,0,1-3.058,1.456,10.349,10.349,0,0,1-3.535.6,11.833,11.833,0,0,1-1.6-.161,10.349,10.349,0,0,1-3.334-1.205c-1.066-.643-1.514-1.392-1.334-2.249a6.679,6.679,0,0,1,2.4-2.894l.4-.4,1.334-1.126-1.734.241-3.334.322h-.133a1.729,1.729,0,0,1-.215-.021,64.6,64.6,0,0,1-6.65,4.2,26.116,26.116,0,0,1-6.469,2.41,30.713,30.713,0,0,1-5.6.8h-.8a9.62,9.62,0,0,1-4.936-1.045,2.285,2.285,0,0,1-1.334-1.928c0-1.259,1.289-2.856,3.85-4.782-2.21.461-4.166.93-5.85,1.406a12.216,12.216,0,0,1-3.066,4.3,6.916,6.916,0,0,1-4.8,1.809l-.934-.081a7.079,7.079,0,0,1-2.533-.8,3.813,3.813,0,0,1-1.6-1.366q-.671-1.125.666-1.969a19.287,19.287,0,0,1,3.467-1.647l.4-.161q3.2-1.282,4.8-1.768a4.355,4.355,0,0,0,.268-1.767v-.162a2.3,2.3,0,0,0-.133-.964l-.135-.16-.533.08a7.116,7.116,0,0,0-3.2,1.366,29.651,29.651,0,0,0-8.137,8.518.923.923,0,0,0-.266.481v.081h-.135a1.025,1.025,0,0,1-.533.16,4.825,4.825,0,0,1-1.467-.321,4.594,4.594,0,0,1-1.334-.643.6.6,0,0,1-.266-.563.931.931,0,0,0,.266-.482l2.7-4.339h-.566q-1.869,0-2.934.081a1.566,1.566,0,0,1,.133.723,4.152,4.152,0,0,1-1.668,3.013,10.706,10.706,0,0,1-3.934,2.21,12,12,0,0,1-3.469.482,11.713,11.713,0,0,1-6.8-1.928,2.874,2.874,0,0,1-1.616-2.081l-.384.231-5.867,3.215-2.268,1.206-1.467.883-1.6,3.134-.132.317c3.081-.22,5.574-.382,7.267-.467.338-.02.725-.038,1.129-.059q3.015-.153,6.021-.306c12.2-.613,34.336-1.7,55.555-2.493h3.551v-.13c3.7-.136,7.359-.258,10.91-.365h14.9c.054-.037.1-.077.155-.114l1.2-2.089a11.187,11.187,0,0,1-2,.482A9.765,9.765,0,0,1,1144.16,676.449Z"/>
      <path id="Path_13" data-name="Path 13" class="cls-1" d="M1048.72,670.795a4.237,4.237,0,0,1-1.4.082c-.457-.045-.912-.091-1.424-.149a6.184,6.184,0,0,0-1.035-.06q-4.275.34-17.01,3.306a8.314,8.314,0,0,0,.3,1.758,6.287,6.287,0,0,1,.225,2.091,17.1,17.1,0,0,1-.883,3.121,11.976,11.976,0,0,1-1.565,2.566c4.232-.343,8.256-.664,11.928-.949a36.74,36.74,0,0,1,7.882-5.709l2-4.017Z"/>
      <path id="Path_14" data-name="Path 14" class="cls-1" d="M1039.34,687.451c-.176.479-.269.73-.269.73s.045.16.133.482l.4-.241.4-.241a1.6,1.6,0,0,0,.467-.442c.1-.142.186-.253.26-.349-.375.019-.754.031-1.127.056Z"/>
      <path id="Path_15" data-name="Path 15" class="cls-1" d="M1142.69,672.513a3.473,3.473,0,0,0-.533,1.366c0,.268.043.4.133.4h.133a3.951,3.951,0,0,0,1.6-.563h.133a11.359,11.359,0,0,0,4.934-2.009,20.78,20.78,0,0,0,4-3.7,49.162,49.162,0,0,0-7.736,2.973A13.678,13.678,0,0,0,1142.69,672.513Z"/>
      <path id="Path_16" data-name="Path 16" class="cls-1" d="M1177.9,671.691l-.129.018q-7.47.8-11.936,1.688a33.313,33.313,0,0,0-8.6,2.973q-1.362.744-2.791,1.641h43.506c-5.209-1.458-9.994-2.419-14.291-4.1C1181.54,673.086,1179.66,672.2,1177.9,671.691Z"/>
      <path id="Path_17" data-name="Path 17" class="cls-1" d="M1108.69,668.736l2.133-1.286A10.8,10.8,0,0,0,1108.69,668.736Z"/>
      <path id="Path_18" data-name="Path 18" class="cls-1" d="M1224.29,709.51a3.559,3.559,0,0,0-.8-.088,1.959,1.959,0,0,0-1.357.357,2.062,2.062,0,0,0-.43,1.354h3.271v-1.4a1.317,1.317,0,0,0-.18-.088A4,4,0,0,0,1224.29,709.51Z"/>
      <path id="Path_19" data-name="Path 19" class="cls-1" d="M1024.02,675.725l-.084-.136a93.79,93.79,0,0,0-9.341,4.173l-.043-.067a68.067,68.067,0,0,0-8.768,4.478q-1.113.6-2.144,1.178c4.579-.385,9.2-.77,13.71-1.141.6-.022,1.166-.07,1.715-.139l1.361-.111c3.27-2.776,4.515-5.511,3.7-8.209Z"/>
      <path id="Path_20" data-name="Path 20" class="cls-1" d="M1065.74,674.844a6.459,6.459,0,0,0,1.2-.082,7.622,7.622,0,0,0,3.268-1.285,6.811,6.811,0,0,0,2.2-2.25l.135-.563-2.936.08h-.133a6.109,6.109,0,0,1-2.668-.723l-.4-.321a12.269,12.269,0,0,0-.934.8,7.793,7.793,0,0,0-1.2,1.486,2.98,2.98,0,0,0-.533,1.567,1.233,1.233,0,0,0,.4.884A3.028,3.028,0,0,0,1065.74,674.844Z"/>
      <path id="Path_21" data-name="Path 21" class="cls-2" d="M1053.49,653.744c-1.146,1.634-2.291,3.27-3.391,4.936-1.127,1.705-.949,2.2.959,2.867a14.268,14.268,0,0,0,1.41.322c.3-.182.885-.346,1.162-.745,1.334-1.936,2.6-3.923,3.848-5.923a1.429,1.429,0,0,0,.131-1.137C1057.06,652.876,1054.23,652.679,1053.49,653.744Z"/>
      <path id="Path_22" data-name="Path 22" class="cls-2" d="M921.791,653.246l-.086.08a62.714,62.714,0,0,0-5.666,8.207,143.488,143.488,0,0,0-14.3,2.146l-1.1.162.282,1.021c.087.19.272.438,1.039.968a2.858,2.858,0,0,0,1.586.611l.293-.006c3.418-.535,6.934-1.014,10.462-1.422a53.842,53.842,0,0,0-2.782,6.994,8.587,8.587,0,0,1-.628,1.7c-.018.043-.032.092-.05.135-.347.4-.66.739-.94,1-2.218,2.463-3.345,3.295-3.905,3.554l-.62.132a2.318,2.318,0,0,1,.181-.362,2.185,2.185,0,0,0,.412-.458,1.546,1.546,0,0,1,.372-.359l.095-.092a20.233,20.233,0,0,0,1.459-1.922.95.95,0,0,0,.133-.726,1.414,1.414,0,0,0-.757-.868,13.731,13.731,0,0,0-1.31-.688,2.516,2.516,0,0,0-1.438-.293,5.261,5.261,0,0,1,.867-.41,3.106,3.106,0,0,0,1,.474,3.241,3.241,0,0,0,1.172.362l.318-.084a.888.888,0,0,0,.6-.287.7.7,0,0,0,.075-.832,3.583,3.583,0,0,0-2.534-2.169,5.961,5.961,0,0,0-4.042-.013,16.676,16.676,0,0,0-5.7,3.518,11.989,11.989,0,0,0-3.593,5.03,2.529,2.529,0,0,0-.15,1.006,2.9,2.9,0,0,0,.754,1.992,4.411,4.411,0,0,0,3.107,1.562h.434a8.047,8.047,0,0,0,4.527-1.946l.754-.56c.521.463,1.124.946,1.794,1.442a2.1,2.1,0,0,0,1.274.42l.281-.005a8.787,8.787,0,0,0,3.677-1.773c0,.1-.015.214-.015.314a4.594,4.594,0,0,0,1.722,3.939,6.466,6.466,0,0,0,1.122.574,4.14,4.14,0,0,0,1.668.406,1.738,1.738,0,0,0,1.058-.26l.747-.553a73.429,73.429,0,0,0,5.9-4.492,22.52,22.52,0,0,0,4.067-4.67.69.69,0,0,0,.2-.405.765.765,0,0,0-.023-.271l1.72-.2-.358.434a6.974,6.974,0,0,0-2.089,3.16,2.721,2.721,0,0,0,1.279,2.733,8.082,8.082,0,0,0,2.918,1.3,8.293,8.293,0,0,0,1.393.169,7.548,7.548,0,0,0,3.078-.646,16.162,16.162,0,0,0,2.786-1.658,3.942,3.942,0,0,0,2.056,1.854,6.8,6.8,0,0,0,2.924.611,12.424,12.424,0,0,0,5.222-1.264q.414-.219.8-.457a5.314,5.314,0,0,0,.688.461,9.971,9.971,0,0,0,4.457.777,23.936,23.936,0,0,0,3.711-.287,15.845,15.845,0,0,0,2.951-.7,20.4,20.4,0,0,0,2.769-1.128c-.015.1-.032.187-.047.282-.212.786.833,1.339,1.279,1.575a8.177,8.177,0,0,0,2.026.811l.492.012.6-.148.1-.2a16.246,16.246,0,0,1,3.189-4.138c.456,1.113,1.715,1.922,3.838,2.463a8.625,8.625,0,0,0,2.072.256,22.79,22.79,0,0,0,5.075-.843,5.054,5.054,0,0,1,1.319-.374l3.361-.723c2.739-.588,4.934-1.09,6.523-1.492a24.183,24.183,0,0,0,4.729-1.729.746.746,0,0,0,.348-.576l-.034-.314-.142-.107a4.637,4.637,0,0,0-1.238-.957l-1.085-.662-.6.113a68.044,68.044,0,0,0-6.772,1.376c-2.342.6-3.718.937-4.232,1.044l-5.493,1.441c-.3.055-.563.109-.789.165l-.705.178a2.743,2.743,0,0,1-.91.21h-.059a4.36,4.36,0,0,1-.461-.588,1.114,1.114,0,0,1-.064-.438,3.369,3.369,0,0,1,.768-1.991c.563-.755,1.426-1.754,2.5-2.908a6.606,6.606,0,0,0,.814-.852.825.825,0,0,0,.262-.662,1.169,1.169,0,0,0-.6-.833c-.384-.259-.611-.413-.723-.494a4.586,4.586,0,0,0-2.32-.8,1.045,1.045,0,0,0-.637.189l-5.859,4.727c.578-1.7,1.381-3.758,2.394-6.127a52.375,52.375,0,0,1,3.774-6.551c1.371-2.3,2.543-4.393,3.5-6.238a.8.8,0,0,0,.014-.617c-.162-.422-.679-.807-1.646-1.234-.726-.384-1.319-.344-1.646-.018-5.707,4.925-9.725,12.609-11.981,22.834-2.995,2.616-6.139,3.962-9.378,3.962a11.345,11.345,0,0,1-2.99-.4.9.9,0,0,1,.086-.512q.666-.724,1.453-1.658l.362-.459c.3-.29.612-.587.952-.894l.254-.189a2.811,2.811,0,0,0,1.51.527,1.128,1.128,0,0,0,.648-.129,6.706,6.706,0,0,0,3.963-4.3c.079-.417-.031-1.029-.955-1.54a2.512,2.512,0,0,0-.74-.354,2.056,2.056,0,0,0-1.524-.007,30.7,30.7,0,0,0-6.028,3.576c-.3.225-.582.445-.854.664a1.54,1.54,0,0,0-.229.139l-.065.1a9.717,9.717,0,0,0-3.019,3.682,11.878,11.878,0,0,1-2.115,1.4,6.684,6.684,0,0,1-3.438.766v-.244c0-.2.016-.48.051-.836a2.866,2.866,0,0,1,.193-.8.772.772,0,0,0,.18-.4,29.7,29.7,0,0,1,2.851-4.352.662.662,0,0,0,.09-.557c-.07-.249-.261-.5-.864-.832h.578l.142-.021c1.317-.391,1.985-1.011,1.985-1.845l-.262-.85c-.2-.449-.768-.861-1.871-1.327a2.6,2.6,0,0,0-1.223-.071,4.435,4.435,0,0,0-1.3.686l-.059.025a2.1,2.1,0,0,0-1.146.721l-.078.088-.031.115a1.149,1.149,0,0,0,.551,1.283c.2.116.423.24.68.371a1.538,1.538,0,0,0-.207-.015l-.607.192-.184.12c-.271.277-.525.557-.77.837a1.173,1.173,0,0,0-.146.075l-.092.089a30.618,30.618,0,0,1-3.892,4.189,16.923,16.923,0,0,1-3.94,2.493,5.46,5.46,0,0,1-1.915.522,4.6,4.6,0,0,1,.88-1.314.562.562,0,0,0,.273-.277q.345-.429,1.189-1.5a16.5,16.5,0,0,1,2.129-2.2.883.883,0,0,0,.393-.618.753.753,0,0,0-.17-.553,3.765,3.765,0,0,0-1.291-1.1,3.423,3.423,0,0,0-1.615-.637h-.109a39.2,39.2,0,0,0-8.44,1.053c-.253.048-.843.26-.843,1.215l.029.133a1.807,1.807,0,0,0-.422.316l-.075.1a11.621,11.621,0,0,1-2.5,2.849c-1.061.892-2.436,1.938-4.1,3.116l-.98.726c.287-2.462,1.524-6.063,3.7-10.751l.418-1.09c.811-1.7,1.564-3.18,2.244-4.4l6.691-.618a101.833,101.833,0,0,1,10.242-.882c.666,0,1.553.05,2.639.147a2.463,2.463,0,0,0,.93.4l.338.082c.871.188,1.32-.109,1.494-.369l.18-.265a.7.7,0,0,0,.229-.448.771.771,0,0,0-.17-.549,1.949,1.949,0,0,0-.973-.834,5.93,5.93,0,0,0-1.072-.436,20.532,20.532,0,0,0-5.113-.579c-1.75,0-4.248.163-7.434.486-1.718.212-2.986.346-3.734.4-.517,0-1.328.033-2.418.1l3.158-5.025.541-.8.052-.1c.387-1-1-1.633-1.486-1.855C922.947,652.793,922.422,652.777,921.791,653.246Zm-22.846,24.165-.443.278a18.825,18.825,0,0,1,2.092-2.186l2.475-1.834c.149-.1.291-.193.424-.279A53.161,53.161,0,0,1,898.945,677.411Z"/>
      <path id="Path_23" data-name="Path 23" class="cls-2" d="M849.25,692.3a101.888,101.888,0,0,0-1.5,11.722c0,.2-.064.651-.131,1.368s-.129,1.367-.2,1.889-.129,1.237-.2,2.084a11.935,11.935,0,0,0,0,2.148,16.357,16.357,0,0,0,.262,1.759,2.237,2.237,0,0,0,.65,1.3,1.817,1.817,0,0,0,1.172.391,1.077,1.077,0,0,0,.781-.325,1.745,1.745,0,0,0,.391-1.043c.066-.521.131-.911.2-1.237a9.1,9.1,0,0,0,.066-1.5V709.5a135.846,135.846,0,0,1,2.8-18.951l.324-.456a171.408,171.408,0,0,0,42.4-24.616q16.9-13.384,24.031-26.376a23.654,23.654,0,0,0,3.516-13.22c-.455-5.536-3.451-9.834-8.986-12.961q-7.719-4-18.561-3.516a72.8,72.8,0,0,0-19.211,4.493,82.454,82.454,0,0,0-15.24,8.206c-7.555,5.145-13.35,10.94-17.322,17.322-2.15,3.322-3.191,6.188-3.127,8.662a5.817,5.817,0,0,0,5.275,5.8,15.991,15.991,0,0,0,1.758.13,17.981,17.981,0,0,0,1.824-.064,3.412,3.412,0,0,0,1.563-.456.965.965,0,0,0,.457-1.042c0-.456-.262-.717-.781-.781a6.3,6.3,0,0,0-1.564,0,3.268,3.268,0,0,1-1.563-.2,4.062,4.062,0,0,1-3.061-2.67q-.293-1.857,1.758-5.666a49.2,49.2,0,0,1,3.061-4.3q9.282-12.211,25.984-19.473c9.053-3.972,17.389-5.795,24.943-5.47a27.215,27.215,0,0,1,13.48,4.038c3.582,2.344,5.145,5.861,4.689,10.615-.26,3.32-1.629,6.9-4.1,10.811q-6.642,10.647-22.4,23.054a169.583,169.583,0,0,1-35.1,21.361,8.037,8.037,0,0,1-2.541.977,105,105,0,0,1,12.83-28.785.943.943,0,0,0,.391,1.042.686.686,0,0,0,.848,0,.49.49,0,0,0,.455-.26c.131-.2.26-.392.391-.587a8.189,8.189,0,0,0,.457-.847,8.052,8.052,0,0,0,.391-.847,20.75,20.75,0,0,0,1.041-3.451,2.908,2.908,0,0,0-1.432-1.954q-1.857-.488-4.494,2.735c-.262.325-1.3,1.759-3.061,4.3a111.9,111.9,0,0,0-12.7,30.935q-.879.293-3.127,1.172c-1.5.587-2.734,1.042-3.646,1.368a24.5,24.5,0,0,1-3.451.847,17.442,17.442,0,0,1-4.1.26,5.431,5.431,0,0,1,2.02-2.148,1.983,1.983,0,0,1,.586-.326,1.59,1.59,0,0,0,1.108-.977,1.441,1.441,0,0,0,.064-.912q-.1-1.074-1.367-1.172a3.729,3.729,0,0,0-2.346.586,7.426,7.426,0,0,0-2.279,1.759,6.8,6.8,0,0,0-1.5,2.149,3.834,3.834,0,0,0,.393,3.972,4.575,4.575,0,0,0,3.516,1.693,19.536,19.536,0,0,0,7.814-1.3A53.691,53.691,0,0,1,849.25,692.3Z"/>
      <path id="Path_24" data-name="Path 24" class="cls-2" d="M1237.3,680.2a213.493,213.493,0,0,1-51.74-9.163c-1.662-.5-3.3-.984-4.93-1.346a6.473,6.473,0,0,0-.725-.23c-.254-.031-.559-.056-.891-.078a17.169,17.169,0,0,0-5.65-.076l-.031.061a50.891,50.891,0,0,0-9.031,1.219,58.636,58.636,0,0,0-9.07,2.893q1.469-2.249,3.6-5.143l.133-.16c.178-.269-.09-.575-.8-.924a12.521,12.521,0,0,0-2.268-.845l-1.066-.16c-.268,0-.4.054-.4.16s-.047.16-.135.16l-.133.322a5.529,5.529,0,0,0-1.4-.724,4.306,4.306,0,0,0-1.4-.321h-.133a49.685,49.685,0,0,0-6.206,1.673,4.078,4.078,0,0,0-1.13-.226,1.276,1.276,0,0,0-.668.16c-.381.39-.751.753-1.117,1.1q-4.884,1.879-5.416,3.957a1.586,1.586,0,0,0-.022.235,23.672,23.672,0,0,1-3.313,1.532,8.356,8.356,0,0,1-2.666.563c-.268,0-.4-.027-.4-.082q-.671-.4,1.2-2.169c.088,0,.135-.027.135-.08q.4-.4,1.533-1.567a19.266,19.266,0,0,1,2.734-2.29c.266-.16.311-.321.133-.481a3.87,3.87,0,0,0-1.4-.964,4.39,4.39,0,0,0-1.668-.563h-.133a57.982,57.982,0,0,0-10.27,1.045.557.557,0,0,0-.473.379.815.815,0,0,0-.189.1,11.736,11.736,0,0,1-2.734,2.129,34.935,34.935,0,0,1-5,2.612,22.812,22.812,0,0,1-8.668,2.169,8.1,8.1,0,0,1-2.8-.4q-.135,0-.135-.159-.4-.644,2.135-2.894a3.077,3.077,0,0,0,1.6.481h.268a20.389,20.389,0,0,0,6.135-2.209,15.22,15.22,0,0,0,4.535-3.737c.176-.213.176-.4,0-.562a6.182,6.182,0,0,0-2.535-1.045,11.785,11.785,0,0,0-1.6-.08,13.222,13.222,0,0,0-6.7,2.088h-.5a38.689,38.689,0,0,0-8.8,1.367,2.948,2.948,0,0,0-2-2.652,8.611,8.611,0,0,0-4.268-1.044,5.332,5.332,0,0,0-1.467.16,2.334,2.334,0,0,0-.668.081c-.18.053-.355.107-.533.16q3.732-5.784,9.2-15.187a.6.6,0,0,0-.268-.563,2.831,2.831,0,0,0-1.133-.644,4.3,4.3,0,0,0-1.4-.32.956.956,0,0,0-.668.24q-5.415,8.276-12.267,19.86c-.289-.008-.6-.013-.937-.013l-2.934.161-2.934.08a9.511,9.511,0,0,0-4.4-1.206l.934-.482c.268-.16.221-.4-.133-.723a6.428,6.428,0,0,0-1.135-.683,3.163,3.163,0,0,0-1.4-.361,1.283,1.283,0,0,0-.666.16c-.782.365-1.551.772-2.312,1.205h-.888a15.227,15.227,0,0,0-3.068,1.527,3.069,3.069,0,0,1-.666.482l-3.734,2.25-5.869,3.374a11.79,11.79,0,0,1,.934-1.688q.132-.4,1.066-2.249a9.573,9.573,0,0,0,1.068-3.536c0-.161-.135-.321-.4-.482a3.671,3.671,0,0,0-1.734-.643.952.952,0,0,0-.666.241,9.091,9.091,0,0,0-1.2,1.646,13.691,13.691,0,0,0-.666,1.246l-.076.168q-1.321-.71-5.2-.517c-4.271.078-10.4,1.135-18.365,3.114l-.141-.149a33.787,33.787,0,0,0-6.468-5.14,74.215,74.215,0,0,0-6.646-3.84c-1.727-.859-4.748-2.186-9.049-4.037s-6.9-2.966-7.793-3.4q-3.593-1.513-5.555-2.485a19.942,19.942,0,0,1-4.217-3,7.017,7.017,0,0,1-2.568-4.08q-.513-3.527,5.59-9.221c3.473-3.233,8.76-6.753,15.871-10.615a119.139,119.139,0,0,1,27.056-10.583,55.06,55.06,0,0,1,10.154-1.6,41.11,41.11,0,0,1,5.814-.2,22.9,22.9,0,0,1,5.881,1.045,7.639,7.639,0,0,1,4.266,2.774q3.443,5.241-5.537,17.45a105.9,105.9,0,0,1-17.3,18.45c-2.148,2.018-4.42,4.066-6.857,6.076l-2.652,1.672a7.571,7.571,0,0,1-1.123.327,4,4,0,0,0-1.15.438,2.284,2.284,0,0,0-1.3,1.861,1.7,1.7,0,0,0,.879,1.773c1.327.827,3.142.539,5.454-.918a46.222,46.222,0,0,0,5.727-4.177,112.83,112.83,0,0,0,20.5-20.987c4.262-5.677,6.861-10.447,7.809-14.37q1.417-6.235-1.709-10.18c-2.084-2.629-5.455-4.21-10.057-4.73a58.977,58.977,0,0,0-21.367,1.966,122.765,122.765,0,0,0-18.647,6.665,100.458,100.458,0,0,0-16.994,9.136q-3.645,2.583-5.658,4.135a33.775,33.775,0,0,0-4.645,4.541,16.855,16.855,0,0,0-3.486,5.852,8.623,8.623,0,0,0,.922,7.494c1.234,2.262,4.041,4.53,8.475,6.819,2.508,1.27,6.1,2.9,10.789,4.84s8.756,3.795,12.2,5.566a36,36,0,0,1,8.7,6.112,243.793,243.793,0,0,0-27.428,13.775c-18.723,1.587-34.711,2.981-36.32,3.121q-41.094,4.937-82.113,10.228c-1.5.192-2.781,1.371-4.164,2.089,1.658.426,3.416,1.366,4.959,1.193,12.564-1.4,25.07-3.079,37.623-4.534q15.469-1.793,30.926-3.478a.315.315,0,0,1,.035,0q9.805-1.085,19.574-2.169c.066.162.131.313.2.472,1.979-.168,4.055-.345,6.207-.524-.008-.158-.021-.307-.027-.469l17.038-1.266a7.783,7.783,0,0,0-2.517,4.392,3.548,3.548,0,0,0,1.088,3.16,5.778,5.778,0,0,0,3.174,1.42,18.6,18.6,0,0,0,4.068.051,22.676,22.676,0,0,0,5.721-1.324,72.358,72.358,0,0,0,20.256-9.388c.259-.181.494-.359.74-.539,6.233-.454,11.542-.809,15.237-1a3.117,3.117,0,0,0,.336.986,5.969,5.969,0,0,0,3.469,1.929,13.141,13.141,0,0,0,1.332.16,4.137,4.137,0,0,0,3.734-2.25c.2-.393.387-.771.57-1.142,1.322,0,2.655.016,4.008.062,1.014.035,2.033-.037,3.049-.061,28.807-.67,57.509-.031,86.1,2.151a9.293,9.293,0,0,0-.1,1.319l.133,1.447a2.583,2.583,0,0,0,1.068.843,7.788,7.788,0,0,0,1.867.764,8.778,8.778,0,0,0,.934.16,1.182,1.182,0,0,0,.533-.08,8.474,8.474,0,0,0,4.066-3.294c.084-.14.165-.3.248-.448q11.115.972,22.2,2.267c1.641.191,3.482-.614,5.23-.957-1.506-.775-2.9-2.044-4.527-2.247-7.1-.886-14.23-1.762-21.383-2.392.191-.51.379-1.044.561-1.606a29.715,29.715,0,0,1,1.334-3.295l.131-.257c28.83-.271,57.652.136,86.451,2.176,2.088.15,4.324-.932,6.49-1.439C1241.44,681.631,1239.42,680.3,1237.3,680.2ZM1110.82,667.45l-2.133,1.286A10.982,10.982,0,0,1,1110.82,667.45Zm-46.55,4.54a7.77,7.77,0,0,1,1.2-1.486q.8-.723.934-.8l.4.321a6.123,6.123,0,0,0,2.668.723h.133l2.936-.08-.135.563a6.811,6.811,0,0,1-2.2,2.25,7.613,7.613,0,0,1-3.268,1.285,6.464,6.464,0,0,1-1.2.082,3.038,3.038,0,0,1-1.6-.4,1.229,1.229,0,0,1-.4-.884A3.052,3.052,0,0,1,1064.27,671.99Zm-63.72,22.36c-4.285,1.416-7.818,1.839-10.547,1.276a11.406,11.406,0,0,1,3.309-3.793q.906-.717,2.167-1.571l17.565-1.307A65,65,0,0,1,1000.55,694.35Zm19.87-10.391-1.361.111c-.549.068-1.119.116-1.715.139-4.51.371-9.131.756-13.71,1.141q1.031-.574,2.144-1.178a68.267,68.267,0,0,1,8.768-4.478l.043.067a93.669,93.669,0,0,1,9.341-4.173l.084.136.111.025C1024.94,678.448,1023.69,681.183,1020.42,683.959Zm20.05,3.78a1.587,1.587,0,0,1-.467.442l-.4.241-.4.241c-.088-.322-.133-.482-.133-.482l.269-.73.265-.005c.373-.024.752-.037,1.127-.056C1040.66,687.486,1040.57,687.6,1040.47,687.739Zm-2.62-5.178c-3.672.285-7.695.606-11.928.949a11.955,11.955,0,0,0,1.565-2.566,17.113,17.113,0,0,0,.883-3.121,6.261,6.261,0,0,0-.225-2.091,8.306,8.306,0,0,1-.3-1.758q12.735-2.964,17.01-3.306a6.076,6.076,0,0,1,1.035.06c.512.059.967.1,1.424.149a4.241,4.241,0,0,0,1.4-.082l-.979,2.04-2,4.017A37.185,37.185,0,0,0,1037.85,682.561Zm103.11.96a15.459,15.459,0,0,0-1.656,2.616c-16.283-1.059-32.621-1.879-49.373-2.829,3.1-.237,5.768-.561,8.439-.629,14.717-.378,29.434-.729,44.148-.928A21.8,21.8,0,0,0,1140.96,683.521Zm6.13-5.625c-.054.037-.1.077-.155.114h-14.9c-3.551.107-7.207.229-10.91.365v.13h-3.551c-21.219.794-43.352,1.88-55.555,2.493q-3.006.155-6.021.306c-.4.021-.791.039-1.129.059-1.692.085-4.186.247-7.267.467l.132-.317,1.6-3.134,1.467-.883,2.268-1.206,5.867-3.215.384-.231a2.874,2.874,0,0,0,1.616,2.081,11.713,11.713,0,0,0,6.8,1.928,12,12,0,0,0,3.469-.482,10.713,10.713,0,0,0,3.934-2.21,4.151,4.151,0,0,0,1.668-3.013,1.569,1.569,0,0,0-.133-.723q1.063-.081,2.934-.081h.566l-2.7,4.339a.927.927,0,0,1-.266.482.605.605,0,0,0,.266.563,4.6,4.6,0,0,0,1.334.643,4.816,4.816,0,0,0,1.467.321,1.025,1.025,0,0,0,.533-.16h.135v-.081a.921.921,0,0,1,.266-.481,29.651,29.651,0,0,1,8.137-8.518,7.111,7.111,0,0,1,3.2-1.366l.533-.08.135.16a2.3,2.3,0,0,1,.133.964v.162a4.356,4.356,0,0,1-.268,1.767q-1.6.481-4.8,1.768l-.4.161a19.363,19.363,0,0,0-3.467,1.647q-1.336.844-.666,1.969a3.807,3.807,0,0,0,1.6,1.366,7.106,7.106,0,0,0,2.533.8l.934.081a6.916,6.916,0,0,0,4.8-1.809,12.2,12.2,0,0,0,3.066-4.3c1.684-.477,3.64-.945,5.85-1.406-2.561,1.926-3.85,3.523-3.85,4.782a2.285,2.285,0,0,0,1.334,1.928,9.617,9.617,0,0,0,4.936,1.045h.8a30.628,30.628,0,0,0,5.6-.8,26.116,26.116,0,0,0,6.469-2.41,64.673,64.673,0,0,0,6.65-4.2,1.546,1.546,0,0,0,.215.021h.133l3.334-.322,1.734-.241-1.334,1.126-.4.4q-2.136,1.769-2.4,2.894c-.18.857.268,1.606,1.334,2.249a10.349,10.349,0,0,0,3.334,1.205,11.821,11.821,0,0,0,1.6.161,10.324,10.324,0,0,0,3.535-.6,20.007,20.007,0,0,0,3.058-1.456,10.723,10.723,0,0,0,1.011.452,10.524,10.524,0,0,0,4.535.883,10.026,10.026,0,0,0,2.133-.16,11.271,11.271,0,0,0,2-.482Zm-56.41-5.143a6.351,6.351,0,0,1-1.332,1.206,12.524,12.524,0,0,1-2.135.965,3.12,3.12,0,0,1,1.6-1.286C1088.73,673.692,1089.35,673.4,1090.68,672.753Zm58.41-1.044a11.353,11.353,0,0,1-4.934,2.009h-.133a3.946,3.946,0,0,1-1.6.563h-.133c-.09,0-.133-.133-.133-.4a3.469,3.469,0,0,1,.533-1.366,13.549,13.549,0,0,1,2.666-1.527,49.349,49.349,0,0,1,7.736-2.973A20.668,20.668,0,0,1,1149.09,671.709Zm5.35,6.3q1.427-.9,2.791-1.641a33.3,33.3,0,0,1,8.6-2.973q4.469-.883,11.936-1.688l.129-.018c1.764.505,3.648,1.4,5.758,2.22,4.3,1.68,9.082,2.641,14.291,4.1H1154.44Z"/>
      <path id="Path_25" data-name="Path 25" class="cls-2" d="M1033.48,706.613V704.59H1026v11.377h2.19v-4.673h4.67v-2.032h-4.67v-2.649Z"/>
      <path id="Path_26" data-name="Path 26" class="cls-2" d="M1037.92,707.71v8.257h2.024v-5.608l.1-.084a2.086,2.086,0,0,1,.277-.221,4.816,4.816,0,0,1,.415-.255,2.514,2.514,0,0,1,.54-.213,2.251,2.251,0,0,1,.616-.088,2.707,2.707,0,0,1,1.324.236h.084v-1.948l-.106-.054a1.355,1.355,0,0,0-.373-.122,2.889,2.889,0,0,0-.616-.061,2.538,2.538,0,0,0-.822.133,2.307,2.307,0,0,0-.616.3,2.7,2.7,0,0,0-.419.381,2.779,2.779,0,0,0-.243.3,1.1,1.1,0,0,0-.076.137h-.084V707.71h-2.025Z"/>
      <path id="Path_27" data-name="Path 27" class="cls-2" d="M1051.26,716.119a3.924,3.924,0,0,0,2.986-1.043,5.821,5.821,0,0,0,0-6.483,4.809,4.809,0,0,0-5.981,0,5.826,5.826,0,0,0,0,6.483A3.934,3.934,0,0,0,1051.26,716.119Zm-1.69-5.784a1.2,1.2,0,0,1,.609-.711,2.933,2.933,0,0,1,1.229-.2,3.36,3.36,0,0,1,.856.106,2.894,2.894,0,0,1,.525.171,1.949,1.949,0,0,1,.179.11l.038.214c.025.142.051.382.076.719s.038.7.038,1.092a4.649,4.649,0,0,1-.187,1.5,1.2,1.2,0,0,1-.608.715,2.936,2.936,0,0,1-1.229.2,3.363,3.363,0,0,1-.856-.107,2.765,2.765,0,0,1-.524-.171,1.685,1.685,0,0,1-.18-.11l-.038-.213c-.025-.142-.051-.383-.075-.723s-.038-.705-.038-1.1A4.333,4.333,0,0,1,1049.57,710.335Z"/>
      <path id="Path_28" data-name="Path 28" class="cls-2" d="M1060.13,707.71v8.257h2.024v-6l.206-.137a2.569,2.569,0,0,1,.654-.274,3.2,3.2,0,0,1,.937-.137,3.453,3.453,0,0,1,.658.061,2.744,2.744,0,0,1,.486.134,2.079,2.079,0,0,1,.324.163,1.885,1.885,0,0,1,.187.13.471.471,0,0,1,.057.061v6h2.024v-5.3a3.217,3.217,0,0,0-.772-2.313,2.884,2.884,0,0,0-2.188-.807,3.162,3.162,0,0,0-.917.133,2.891,2.891,0,0,0-.7.3,3.144,3.144,0,0,0-.486.381,3.218,3.218,0,0,0-.289.3,1.356,1.356,0,0,0-.1.137h-.084v-1.088h-2.025Z"/>
      <path id="Path_29" data-name="Path 29" class="cls-2" d="M1074,705.525l-.473,2.185h-1.248v1.864h1.248v3.433a3.071,3.071,0,0,0,.776,2.244,2.921,2.921,0,0,0,2.185.792,4.447,4.447,0,0,0,1.636-.229v-1.872h-.151l-.146.061a2.638,2.638,0,0,1-.448.11,3.648,3.648,0,0,1-.655.058,2.08,2.08,0,0,1-1.164-.3v-4.292h2.488V707.71h-2.488v-2.185H1074Z"/>
      <path id="Path_30" data-name="Path 30" class="cls-2" d="M1098.38,706.613V704.59h-7.64v11.377h7.64v-2.025h-5.46v-2.808h4.84V709.11h-4.84v-2.5Z"/>
      <path id="Path_31" data-name="Path 31" class="cls-2" d="M1103.44,707.71v8.257h2.024v-6l.206-.137a2.569,2.569,0,0,1,.654-.274,3.2,3.2,0,0,1,.937-.137,3.453,3.453,0,0,1,.658.061,2.744,2.744,0,0,1,.486.134,2.079,2.079,0,0,1,.324.163,1.885,1.885,0,0,1,.187.13.471.471,0,0,1,.057.061v6H1111v-5.3a3.217,3.217,0,0,0-.772-2.313,2.884,2.884,0,0,0-2.188-.807,3.162,3.162,0,0,0-.917.133,2.891,2.891,0,0,0-.7.3,3.144,3.144,0,0,0-.486.381,3.218,3.218,0,0,0-.289.3,1.356,1.356,0,0,0-.1.137h-.084v-1.088h-2.025Z"/>
      <path id="Path_32" data-name="Path 32" class="cls-2" d="M1123.69,715.967V703.814h-2.024v4.748h-.076l-.091-.1a1.883,1.883,0,0,0-.3-.259,4.519,4.519,0,0,0-.483-.3,2.9,2.9,0,0,0-.708-.251,3.98,3.98,0,0,0-.913-.1,2.853,2.853,0,0,0-2.359,1.043,6.7,6.7,0,0,0,0,6.483,2.855,2.855,0,0,0,2.359,1.043,3.13,3.13,0,0,0,.917-.134,2.989,2.989,0,0,0,.7-.3,3.182,3.182,0,0,0,.491-.377,3.613,3.613,0,0,0,.293-.3,1.493,1.493,0,0,0,.095-.137h.076v1.088h2.024Zm-2.23-2.071a2.766,2.766,0,0,1-.692.24,4.46,4.46,0,0,1-1.043.118,3.363,3.363,0,0,1-.856-.107,2.765,2.765,0,0,1-.524-.171,1.685,1.685,0,0,1-.18-.11l-.038-.213c-.025-.142-.051-.383-.075-.723s-.038-.705-.038-1.1a4.731,4.731,0,0,1,.183-1.5,1.2,1.2,0,0,1,.57-.715,2.521,2.521,0,0,1,1.119-.2,3.049,3.049,0,0,1,.951.152,3.429,3.429,0,0,1,.612.243c.1.062.174.112.225.152v3.813Z"/>
      <path id="Path_33" data-name="Path 33" class="cls-2" d="M1144.9,714.582a5.713,5.713,0,0,0-4.3-9.993h-4.057v11.377h4.057A5.848,5.848,0,0,0,1144.9,714.582Zm-6.17-7.969h2.185a9.269,9.269,0,0,1,1.085.062,7.845,7.845,0,0,1,.833.133c.208.049.4.1.582.164s.3.1.347.129.088.046.114.062l.038.3c.024.193.05.549.075,1.065s.038,1.1.038,1.751a9.5,9.5,0,0,1-.141,1.826,2.338,2.338,0,0,1-.518,1.115,1.889,1.889,0,0,1-.943.574,6.061,6.061,0,0,1-1.511.152h-2.185v-7.329Z"/>
      <path id="Path_34" data-name="Path 34" class="cls-2" d="M1158.44,710.982a3.358,3.358,0,0,0-.939-2.508,3.5,3.5,0,0,0-2.568-.925,3.816,3.816,0,0,0-2.928,1.043,4.634,4.634,0,0,0-.969,3.241,4.513,4.513,0,0,0,1.008,3.25,4.188,4.188,0,0,0,3.123,1.035,9.573,9.573,0,0,0,1.645-.13,6.488,6.488,0,0,0,.943-.205,2.69,2.69,0,0,0,.3-.13v-1.872l-.305.114a5.161,5.161,0,0,1-.977.24,8.534,8.534,0,0,1-1.443.118,7.11,7.11,0,0,1-.783-.042,5.109,5.109,0,0,1-.574-.092,2.789,2.789,0,0,1-.385-.118,2.046,2.046,0,0,1-.221-.095.691.691,0,0,1-.068-.042l-.039-.2c-.025-.133-.051-.315-.074-.549a5.731,5.731,0,0,1-.039-.662h5.3v-1.474Zm-2.03.152h-3.273a2.072,2.072,0,0,1,.43-1.354,1.965,1.965,0,0,1,1.359-.357,3.566,3.566,0,0,1,.8.088,3.7,3.7,0,0,1,.5.137,1.452,1.452,0,0,1,.18.088v1.4Z"/>
      <path id="Path_35" data-name="Path 35" class="cls-2" d="M1167.94,715.967l3.19-8.106v-.151h-2.02l-2.03,5.372-.15.784h-.16l-.16-.784-2.02-5.372h-2.11v.151l3.2,8.106Z"/>
      <path id="Path_36" data-name="Path 36" class="cls-2" d="M1175.03,711.834a4.513,4.513,0,0,0,1.008,3.25,4.188,4.188,0,0,0,3.123,1.035,9.573,9.573,0,0,0,1.645-.13,6.488,6.488,0,0,0,.943-.205,2.69,2.69,0,0,0,.3-.13v-1.872l-.305.114a5.161,5.161,0,0,1-.977.24,8.534,8.534,0,0,1-1.443.118,7.11,7.11,0,0,1-.783-.042,5.109,5.109,0,0,1-.574-.092,2.789,2.789,0,0,1-.385-.118,2.046,2.046,0,0,1-.221-.095.691.691,0,0,1-.068-.042l-.039-.2c-.025-.133-.051-.315-.074-.549a5.731,5.731,0,0,1-.039-.662h5.3v-1.476a3.358,3.358,0,0,0-.939-2.508,3.5,3.5,0,0,0-2.568-.925,3.816,3.816,0,0,0-2.928,1.043A4.622,4.622,0,0,0,1175.03,711.834Zm2.53-2.055a1.965,1.965,0,0,1,1.359-.357,3.566,3.566,0,0,1,.8.088,3.7,3.7,0,0,1,.5.137,1.452,1.452,0,0,1,.18.088v1.4h-3.273A2.16,2.16,0,0,1,1177.56,709.779Z"/>
      <rect id="Rectangle_2" data-name="Rectangle 2" class="cls-2" width="2.023" height="12.153" transform="translate(1187.34 703.813)"/>
      <path id="Path_37" data-name="Path 37" class="cls-2" d="M1198.25,716.119a3.926,3.926,0,0,0,2.986-1.043,5.821,5.821,0,0,0,0-6.483,4.81,4.81,0,0,0-5.982,0,5.831,5.831,0,0,0,0,6.483A3.938,3.938,0,0,0,1198.25,716.119Zm-1.69-5.784a1.2,1.2,0,0,1,.609-.711,2.933,2.933,0,0,1,1.229-.2,3.363,3.363,0,0,1,.857.106,2.926,2.926,0,0,1,.525.171,1.909,1.909,0,0,1,.178.11l.039.214c.025.142.051.382.076.719s.037.7.037,1.092a4.681,4.681,0,0,1-.186,1.5,1.208,1.208,0,0,1-.609.715,2.933,2.933,0,0,1-1.229.2,3.366,3.366,0,0,1-.857-.107,2.744,2.744,0,0,1-.523-.171,1.59,1.59,0,0,1-.18-.11l-.039-.213c-.025-.142-.051-.383-.074-.723s-.039-.705-.039-1.1A4.6,4.6,0,0,1,1196.56,710.335Z"/>
      <path id="Path_38" data-name="Path 38" class="cls-2" d="M1211.72,707.55a3.169,3.169,0,0,0-.918.133,2.885,2.885,0,0,0-.7.3,3.054,3.054,0,0,0-.486.381,3.218,3.218,0,0,0-.289.3,1.07,1.07,0,0,0-.1.137h-.084v-1.088h-2.025v11.841h2.025v-4.444h.084l.092.1a1.819,1.819,0,0,0,.3.259,3.87,3.87,0,0,0,.479.3,2.861,2.861,0,0,0,.707.252,3.982,3.982,0,0,0,.914.1,2.854,2.854,0,0,0,2.359-1.043,6.7,6.7,0,0,0,0-6.483A2.856,2.856,0,0,0,1211.72,707.55Zm.92,5.784a1.226,1.226,0,0,1-.572.719,2.467,2.467,0,0,1-1.117.2,3.068,3.068,0,0,1-.955-.152,3.409,3.409,0,0,1-.617-.244,2.228,2.228,0,0,1-.225-.152v-3.82l.2-.113a2.775,2.775,0,0,1,.7-.236,4.557,4.557,0,0,1,1.041-.114,3.363,3.363,0,0,1,.857.106,2.926,2.926,0,0,1,.525.171,1.909,1.909,0,0,1,.178.11l.039.214c.025.142.051.382.08.719s.041.7.041,1.092A4.831,4.831,0,0,1,1212.64,713.334Z"/>
      <path id="Path_39" data-name="Path 39" class="cls-2" d="M1226.99,710.982a3.358,3.358,0,0,0-.939-2.508,3.5,3.5,0,0,0-2.568-.925,3.811,3.811,0,0,0-2.926,1.043,4.634,4.634,0,0,0-.971,3.241,4.513,4.513,0,0,0,1.008,3.25,4.2,4.2,0,0,0,3.125,1.035,9.606,9.606,0,0,0,1.645-.13,6.629,6.629,0,0,0,.943-.205,2.882,2.882,0,0,0,.3-.13v-1.872l-.305.114a5.15,5.15,0,0,1-.979.24,8.492,8.492,0,0,1-1.441.118,7.149,7.149,0,0,1-.785-.042,5.276,5.276,0,0,1-.574-.092,2.759,2.759,0,0,1-.383-.118,1.864,1.864,0,0,1-.221-.095c-.031-.018-.055-.031-.07-.042l-.037-.2c-.025-.133-.051-.315-.076-.549a6.182,6.182,0,0,1-.037-.662h5.3v-1.474Zm-2.02.152H1221.7a2.061,2.061,0,0,1,.43-1.354,1.959,1.959,0,0,1,1.357-.357,3.566,3.566,0,0,1,.8.088,3.7,3.7,0,0,1,.5.137,1.324,1.324,0,0,1,.18.088v1.4Z"/>
      <path id="Path_40" data-name="Path 40" class="cls-2" d="M1236.8,707.61a2.906,2.906,0,0,0-.617-.061,2.538,2.538,0,0,0-.822.133,2.315,2.315,0,0,0-.615.3,3.159,3.159,0,0,0-.662.678,1.112,1.112,0,0,0-.076.137h-.084V707.71H1231.9v8.257h2.025v-5.608l.1-.084a2.023,2.023,0,0,1,.277-.221,4.662,4.662,0,0,1,.414-.255,2.5,2.5,0,0,1,.541-.213,2.245,2.245,0,0,1,.615-.088,2.7,2.7,0,0,1,1.324.236h.084v-1.948l-.1-.054A1.375,1.375,0,0,0,1236.8,707.61Z"/>
      <path id="Path_41" data-name="Path 41" class="cls-2" d="M1179.77,689.583c-3.074,0-3.074,4.768,0,4.768S1182.84,689.583,1179.77,689.583Z"/>
      <path id="Path_42" data-name="Path 42" class="cls-2" d="M1067.35,659.7a1.317,1.317,0,0,0,.953-.277,2.344,2.344,0,0,0,.676-.4q.279-.237.6-.556a1.4,1.4,0,0,0,.556-.557,1.232,1.232,0,0,0,.16-.478l.158-.078a.365.365,0,0,1,.039-.16.535.535,0,0,0,.041-.238,1.087,1.087,0,0,0-.358-1.352,1.512,1.512,0,0,0-1.47-.317,1.4,1.4,0,0,0-.4.159v-.08a.159.159,0,0,0-.119.041.164.164,0,0,1-.119.039c-.158.107-.305.213-.438.318s-.277.212-.437.317a3.555,3.555,0,0,0-1.033,1.192,1.255,1.255,0,0,0-.238.994,1.659,1.659,0,0,0,.477.992A1.432,1.432,0,0,0,1067.35,659.7Z"/>
      <path id="Path_43" data-name="Path 43" class="cls-2" d="M1074.27,659.7a1.321,1.321,0,0,0,.955-.277,2.378,2.378,0,0,0,.675-.4q.278-.237.6-.556a1.421,1.421,0,0,0,.557-.557,1.22,1.22,0,0,0,.158-.478l.159-.078a.352.352,0,0,1,.04-.16.57.57,0,0,0,.039-.238,1.088,1.088,0,0,0-.357-1.352,1.514,1.514,0,0,0-1.471-.317,1.4,1.4,0,0,0-.4.159v-.08a.154.154,0,0,0-.119.041.168.168,0,0,1-.12.039c-.159.107-.306.213-.437.318s-.279.212-.438.317a3.566,3.566,0,0,0-1.033,1.192,1.251,1.251,0,0,0-.238.994,1.659,1.659,0,0,0,.477.992A1.427,1.427,0,0,0,1074.27,659.7Z"/>
    </g>
  </g>
</svg>
